<svg xmlns="http://www.w3.org/2000/svg" xmlns:xlink="http://www.w3.org/1999/xlink" width="500" zoomAndPan="magnify" viewBox="0 0 375 374.999991" height="500" preserveAspectRatio="xMidYMid meet" version="1.0"><defs><clipPath id="0d17ecdafc"><path d="M 297 54.601562 L 327.824219 54.601562 L 327.824219 69.074219 L 297 69.074219 Z M 297 54.601562 " clip-rule="nonzero"/></clipPath><clipPath id="eb855a76aa"><path d="M 0 0.601562 L 30.824219 0.601562 L 30.824219 15.074219 L 0 15.074219 Z M 0 0.601562 " clip-rule="nonzero"/></clipPath><clipPath id="d2671bcd2d"><rect x="0" width="31" y="0" height="16"/></clipPath><clipPath id="b3d24f3cf4"><path d="M 297 54.601562 L 327.75 54.601562 L 327.75 68.851562 L 297 68.851562 Z M 297 54.601562 " clip-rule="nonzero"/></clipPath><clipPath id="6b7ac8b204"><path d="M 47.175781 49.351562 L 68.175781 49.351562 L 68.175781 68.851562 L 47.175781 68.851562 Z M 47.175781 49.351562 " clip-rule="nonzero"/></clipPath><clipPath id="57f4bb626d"><path d="M 0.175781 0.351562 L 21.175781 0.351562 L 21.175781 19.851562 L 0.175781 19.851562 Z M 0.175781 0.351562 " clip-rule="nonzero"/></clipPath><clipPath id="779105842c"><rect x="0" width="22" y="0" height="20"/></clipPath><clipPath id="b817891e0d"><path d="M 180 186 L 204 186 L 204 208 L 180 208 Z M 180 186 " clip-rule="nonzero"/></clipPath><clipPath id="cd31441d0d"><path d="M 176.941406 195.804688 L 198.390625 183.417969 L 207.101562 198.503906 L 185.652344 210.886719 Z M 176.941406 195.804688 " clip-rule="nonzero"/></clipPath><clipPath id="b54819696b"><path d="M 184.484375 191.449219 L 190.839844 187.777344 C 195.003906 185.375 200.332031 186.800781 202.734375 190.964844 C 205.140625 195.132812 203.714844 200.457031 199.546875 202.863281 L 193.195312 206.535156 C 189.027344 208.9375 183.703125 207.511719 181.296875 203.347656 C 178.890625 199.179688 180.316406 193.855469 184.484375 191.449219 Z M 184.484375 191.449219 " clip-rule="nonzero"/></clipPath><clipPath id="e714252086"><path d="M 0 0 L 24 0 L 24 22 L 0 22 Z M 0 0 " clip-rule="nonzero"/></clipPath><clipPath id="8fe8f9a24c"><path d="M -3.058594 9.804688 L 18.390625 -2.582031 L 27.101562 12.503906 L 5.652344 24.886719 Z M -3.058594 9.804688 " clip-rule="nonzero"/></clipPath><clipPath id="ae29565dcf"><path d="M 4.484375 5.449219 L 10.839844 1.777344 C 15.003906 -0.625 20.332031 0.800781 22.734375 4.964844 C 25.140625 9.132812 23.714844 14.457031 19.546875 16.863281 L 13.195312 20.535156 C 9.027344 22.9375 3.703125 21.511719 1.296875 17.347656 C -1.109375 13.179688 0.316406 7.855469 4.484375 5.449219 Z M 4.484375 5.449219 " clip-rule="nonzero"/></clipPath><clipPath id="c2eb707e43"><rect x="0" width="24" y="0" height="22"/></clipPath><clipPath id="df5c88d4fa"><path d="M 180 186 L 204 186 L 204 208 L 180 208 Z M 180 186 " clip-rule="nonzero"/></clipPath><clipPath id="2c227de158"><path d="M 176.941406 195.804688 L 198.375 183.429688 L 207 198.367188 L 185.566406 210.742188 Z M 176.941406 195.804688 " clip-rule="nonzero"/></clipPath><clipPath id="1683992d85"><path d="M 176.941406 195.804688 L 199.277344 182.90625 L 208.59375 199.039062 L 186.257812 211.9375 Z M 176.941406 195.804688 " clip-rule="nonzero"/></clipPath><clipPath id="65a11910c5"><path d="M 184.480469 191.449219 L 190.835938 187.78125 C 195 185.378906 200.324219 186.804688 202.730469 190.96875 C 205.132812 195.132812 203.707031 200.457031 199.542969 202.863281 L 193.1875 206.53125 C 189.023438 208.933594 183.699219 207.507812 181.292969 203.34375 C 178.890625 199.179688 180.316406 193.855469 184.480469 191.449219 Z M 184.480469 191.449219 " clip-rule="nonzero"/></clipPath><clipPath id="ed5ef726fb"><path d="M 175 176 L 200 176 L 200 198 L 175 198 Z M 175 176 " clip-rule="nonzero"/></clipPath><clipPath id="e11056ba6b"><path d="M 172.433594 184.492188 L 194.910156 173.460938 L 202.585938 189.097656 L 180.105469 200.128906 Z M 172.433594 184.492188 " clip-rule="nonzero"/></clipPath><clipPath id="d2c7eb35ca"><path d="M 180.25 180.652344 L 187.085938 177.300781 C 191.40625 175.179688 196.625 176.960938 198.742188 181.28125 C 200.863281 185.597656 199.078125 190.816406 194.761719 192.9375 L 187.925781 196.292969 C 183.605469 198.410156 178.386719 196.628906 176.269531 192.308594 C 174.148438 187.992188 175.933594 182.773438 180.25 180.652344 Z M 180.25 180.652344 " clip-rule="nonzero"/></clipPath><clipPath id="1db8de5293"><path d="M 0 0 L 25 0 L 25 22 L 0 22 Z M 0 0 " clip-rule="nonzero"/></clipPath><clipPath id="370e0a54c6"><path d="M -2.566406 8.492188 L 19.910156 -2.539062 L 27.585938 13.097656 L 5.105469 24.128906 Z M -2.566406 8.492188 " clip-rule="nonzero"/></clipPath><clipPath id="844262aa41"><path d="M 5.25 4.652344 L 12.085938 1.300781 C 16.40625 -0.820312 21.625 0.960938 23.742188 5.28125 C 25.863281 9.597656 24.078125 14.816406 19.761719 16.9375 L 12.925781 20.292969 C 8.605469 22.410156 3.386719 20.628906 1.269531 16.308594 C -0.851562 11.992188 0.933594 6.773438 5.25 4.652344 Z M 5.25 4.652344 " clip-rule="nonzero"/></clipPath><clipPath id="9280d60d25"><rect x="0" width="25" y="0" height="22"/></clipPath><clipPath id="4b7b0175cf"><path d="M 175 176 L 200 176 L 200 198 L 175 198 Z M 175 176 " clip-rule="nonzero"/></clipPath><clipPath id="02f25e937f"><path d="M 172.433594 184.492188 L 194.652344 173.585938 L 202.25 189.074219 L 180.03125 199.976562 Z M 172.433594 184.492188 " clip-rule="nonzero"/></clipPath><clipPath id="6e89e94e51"><path d="M 172.433594 184.488281 L 195.589844 173.125 L 203.796875 189.851562 L 180.640625 201.214844 Z M 172.433594 184.488281 " clip-rule="nonzero"/></clipPath><clipPath id="1f2b638180"><path d="M 180.25 180.652344 L 187.085938 177.300781 C 191.402344 175.179688 196.621094 176.964844 198.738281 181.28125 C 200.855469 185.597656 199.074219 190.816406 194.757812 192.933594 L 187.921875 196.285156 C 183.605469 198.40625 178.390625 196.625 176.269531 192.304688 C 174.152344 187.988281 175.933594 182.773438 180.25 180.652344 Z M 180.25 180.652344 " clip-rule="nonzero"/></clipPath></defs><rect x="-37.5" width="450" fill="#ffffff" y="-37.499999" height="449.999989" fill-opacity="1"/><rect x="-37.5" width="450" fill="#ffffff" y="-37.499999" height="449.999989" fill-opacity="1"/><path stroke-linecap="butt" transform="matrix(0, 0.75, -0.75, 0, 83.183385, 67.324008)" fill="none" stroke-linejoin="miter" d="M 0.000280495 23.999723 L 326.172177 23.999723 " stroke="#000000" stroke-width="48" stroke-opacity="1" stroke-miterlimit="4"/><path stroke-linecap="butt" transform="matrix(0.75, 0, 0, 0.75, 65.1891, 49.318293)" fill="none" stroke-linejoin="miter" d="M -0.00213363 23.997486 L 203.862463 23.997486 " stroke="#000000" stroke-width="48" stroke-opacity="1" stroke-miterlimit="4"/><path stroke-linecap="butt" transform="matrix(0.75, 0, 0, 0.75, 65.1891, 171.634604)" fill="none" stroke-linejoin="miter" d="M -0.00213363 23.997613 L 163.086419 23.997613 " stroke="#000000" stroke-width="48" stroke-opacity="1" stroke-miterlimit="4"/><path stroke-linecap="butt" transform="matrix(0.75, 0, 0, 0.75, 169.505413, 67.318289)" fill="none" stroke-linejoin="miter" d="M 187.086546 -0.00251057 L 187.086546 239.403755 C 187.086546 284.440216 150.581335 320.945427 105.544874 320.945427 L 69.940705 320.945427 C 57.758412 320.945427 46.070911 316.106885 37.456327 307.492301 C 28.841743 298.877717 23.997993 287.190217 23.997993 275.007924 L 23.997993 229.070421 " stroke="#000000" stroke-width="48" stroke-opacity="1" stroke-miterlimit="4"/><path stroke-linecap="butt" transform="matrix(0.53033, 0.53033, -0.53033, 0.53033, 77.916885, 54.590701)" fill="none" stroke-linejoin="miter" d="M 0.000213359 24.002973 L 230.642255 24.002973 " stroke="#000000" stroke-width="48" stroke-opacity="1" stroke-miterlimit="4"/><path stroke-linecap="butt" transform="matrix(0.53033, -0.53033, 0.53033, 0.53033, 174.777341, 176.906355)" fill="none" stroke-linejoin="miter" d="M 0.000101362 23.997342 L 230.642143 23.997342 " stroke="#000000" stroke-width="48" stroke-opacity="1" stroke-miterlimit="4"/><g clip-path="url(#0d17ecdafc)"><g transform="matrix(1, 0, 0, 1, 297, 54)"><g clip-path="url(#d2671bcd2d)"><g clip-path="url(#eb855a76aa)"><path fill="#000000" d="M 0 0.601562 L 30.8125 0.601562 L 30.8125 15.074219 L 0 15.074219 Z M 0 0.601562 " fill-opacity="1" fill-rule="nonzero"/></g></g></g></g><g clip-path="url(#b3d24f3cf4)"><path stroke-linecap="butt" transform="matrix(0.75, 0, 0, 0.75, 296.999985, 54.600841)" fill="none" stroke-linejoin="miter" d="M 0.000020004 0.000961714 L 41.093773 0.000961714 L 41.093773 19.29263 L 0.000020004 19.29263 Z M 0.000020004 0.000961714 " stroke="#000000" stroke-width="120" stroke-opacity="1" stroke-miterlimit="4"/></g><g clip-path="url(#6b7ac8b204)"><g transform="matrix(1, 0, 0, 1, 47, 49)"><g clip-path="url(#779105842c)"><g clip-path="url(#57f4bb626d)"><path fill="#000000" d="M 0.175781 0.351562 L 21.199219 0.351562 L 21.199219 19.851562 L 0.175781 19.851562 Z M 0.175781 0.351562 " fill-opacity="1" fill-rule="nonzero"/></g></g></g><path stroke-linecap="butt" transform="matrix(0.75, 0, 0, 0.75, 47.175001, 49.350002)" fill="none" stroke-linejoin="miter" d="M 0.0010398 0.00208125 L 28.001042 0.00208125 L 28.001042 26.002083 L 0.0010398 26.002083 Z M 0.0010398 0.00208125 " stroke="#000000" stroke-width="120" stroke-opacity="1" stroke-miterlimit="4"/></g><g clip-path="url(#b817891e0d)"><g clip-path="url(#cd31441d0d)"><g clip-path="url(#b54819696b)"><g transform="matrix(1, 0, 0, 1, 180, 186)"><g clip-path="url(#c2eb707e43)"><g clip-path="url(#e714252086)"><g clip-path="url(#8fe8f9a24c)"><g clip-path="url(#ae29565dcf)"><path fill="#000000" d="M -3.058594 9.804688 L 18.390625 -2.582031 L 27.101562 12.503906 L 5.652344 24.886719 Z M -3.058594 9.804688 " fill-opacity="1" fill-rule="nonzero"/></g></g></g></g></g></g></g></g><g clip-path="url(#df5c88d4fa)"><g clip-path="url(#2c227de158)"><g clip-path="url(#1683992d85)"><g clip-path="url(#65a11910c5)"><path stroke-linecap="butt" transform="matrix(0.649508, -0.375019, 0.375019, 0.649508, 176.941193, 195.803498)" fill="none" stroke-linejoin="miter" d="M 11.608459 -0.001362 L 21.392436 0.000500062 C 27.802244 0.00274304 32.999449 5.198726 33.001716 11.611139 C 32.999473 18.020947 27.80349 23.218151 21.391078 23.220419 L 11.607101 23.218557 C 5.197293 23.216314 0.0000883243 18.020331 -0.00217917 11.607918 C 0.0000637988 5.19811 5.196047 0.000905504 11.608459 -0.001362 Z M 11.608459 -0.001362 " stroke="#000000" stroke-width="120" stroke-opacity="1" stroke-miterlimit="4"/></g></g></g></g><g clip-path="url(#ed5ef726fb)"><g clip-path="url(#e11056ba6b)"><g clip-path="url(#d2c7eb35ca)"><g transform="matrix(1, 0, 0, 1, 175, 176)"><g clip-path="url(#9280d60d25)"><g clip-path="url(#1db8de5293)"><g clip-path="url(#370e0a54c6)"><g clip-path="url(#844262aa41)"><path fill="#000000" d="M -2.566406 8.492188 L 19.910156 -2.539062 L 27.585938 13.097656 L 5.105469 24.128906 Z M -2.566406 8.492188 " fill-opacity="1" fill-rule="nonzero"/></g></g></g></g></g></g></g></g><g clip-path="url(#4b7b0175cf)"><g clip-path="url(#02f25e937f)"><g clip-path="url(#6e89e94e51)"><g clip-path="url(#1f2b638180)"><path stroke-linecap="butt" transform="matrix(0.6733, -0.330405, 0.330405, 0.6733, 172.434428, 184.489632)" fill="none" stroke-linejoin="miter" d="M 11.609035 -0.00238065 L 21.76016 0.00121638 C 28.172702 -0.0022835 33.370849 5.199934 33.369673 11.610182 C 33.368498 18.02043 28.170956 23.220871 21.760708 23.219695 L 11.609583 23.216098 C 5.197041 23.219598 0.00127486 18.024351 0.0000694646 11.607133 C 0.00124528 5.196885 5.196492 0.00111922 11.609035 -0.00238065 Z M 11.609035 -0.00238065 " stroke="#000000" stroke-width="120" stroke-opacity="1" stroke-miterlimit="4"/></g></g></g></g></svg>