<svg xmlns="http://www.w3.org/2000/svg" xmlns:xlink="http://www.w3.org/1999/xlink" width="500" zoomAndPan="magnify" viewBox="0 0 375 374.999991" height="500" preserveAspectRatio="xMidYMid meet" version="1.0"><defs><clipPath id="0edd704404"><path d="M 257.429688 101.414062 L 278.453125 101.414062 L 278.453125 111.109375 L 257.429688 111.109375 Z M 257.429688 101.414062 " clip-rule="nonzero"/></clipPath><clipPath id="75a29c98fe"><path d="M 0.429688 0.414062 L 21.453125 0.414062 L 21.453125 10.109375 L 0.429688 10.109375 Z M 0.429688 0.414062 " clip-rule="nonzero"/></clipPath><clipPath id="5b1aa21fdd"><rect x="0" width="22" y="0" height="11"/></clipPath><clipPath id="2e494de8a2"><path d="M 257.429688 101.414062 L 278.429688 101.414062 L 278.429688 111.105469 L 257.429688 111.105469 Z M 257.429688 101.414062 " clip-rule="nonzero"/></clipPath><clipPath id="f3304b9500"><path d="M 90.007812 97.808594 L 102.789062 97.808594 L 102.789062 111.109375 L 90.007812 111.109375 Z M 90.007812 97.808594 " clip-rule="nonzero"/></clipPath><clipPath id="fc20352e6b"><path d="M 0.0078125 0.808594 L 12.789062 0.808594 L 12.789062 14.109375 L 0.0078125 14.109375 Z M 0.0078125 0.808594 " clip-rule="nonzero"/></clipPath><clipPath id="7dab329017"><rect x="0" width="13" y="0" height="15"/></clipPath><clipPath id="3305e40075"><path d="M 90.011719 97.808594 L 102.757812 97.808594 L 102.757812 111.097656 L 90.011719 111.097656 Z M 90.011719 97.808594 " clip-rule="nonzero"/></clipPath><clipPath id="e82b56549f"><path d="M 178 190 L 196 190 L 196 205 L 178 205 Z M 178 190 " clip-rule="nonzero"/></clipPath><clipPath id="6cb7c64047"><path d="M 176.800781 195.796875 L 191.859375 188.40625 L 197 198.882812 L 181.941406 206.269531 Z M 176.800781 195.796875 " clip-rule="nonzero"/></clipPath><clipPath id="5f53f0db42"><path d="M 182.039062 193.226562 L 186.617188 190.976562 C 189.511719 189.558594 193.007812 190.753906 194.425781 193.644531 C 195.847656 196.539062 194.652344 200.035156 191.757812 201.453125 L 187.179688 203.699219 C 184.289062 205.121094 180.792969 203.925781 179.371094 201.03125 C 177.953125 198.140625 179.148438 194.644531 182.039062 193.226562 Z M 182.039062 193.226562 " clip-rule="nonzero"/></clipPath><clipPath id="24f45878dc"><path d="M 0 0 L 18 0 L 18 15 L 0 15 Z M 0 0 " clip-rule="nonzero"/></clipPath><clipPath id="d3cca4f393"><path d="M -1.199219 5.796875 L 13.859375 -1.59375 L 19 8.882812 L 3.941406 16.269531 Z M -1.199219 5.796875 " clip-rule="nonzero"/></clipPath><clipPath id="fe4d30a873"><path d="M 4.039062 3.226562 L 8.617188 0.976562 C 11.511719 -0.441406 15.007812 0.753906 16.425781 3.644531 C 17.847656 6.539062 16.652344 10.035156 13.757812 11.453125 L 9.179688 13.699219 C 6.289062 15.121094 2.792969 13.925781 1.371094 11.03125 C -0.046875 8.140625 1.148438 4.644531 4.039062 3.226562 Z M 4.039062 3.226562 " clip-rule="nonzero"/></clipPath><clipPath id="4a20bae542"><rect x="0" width="18" y="0" height="15"/></clipPath><clipPath id="e1d1e91de2"><path d="M 178 190 L 196 190 L 196 205 L 178 205 Z M 178 190 " clip-rule="nonzero"/></clipPath><clipPath id="706b57c744"><path d="M 176.800781 195.796875 L 191.613281 188.527344 L 196.902344 199.300781 L 182.089844 206.566406 Z M 176.800781 195.796875 " clip-rule="nonzero"/></clipPath><clipPath id="f23b4d9e4f"><path d="M 176.800781 195.796875 L 192.308594 188.1875 L 197.800781 199.382812 L 182.296875 206.992188 Z M 176.800781 195.796875 " clip-rule="nonzero"/></clipPath><clipPath id="a9e7121986"><path d="M 182.035156 193.226562 L 186.613281 190.980469 C 189.503906 189.5625 192.996094 190.757812 194.414062 193.648438 C 195.832031 196.539062 194.640625 200.03125 191.75 201.449219 L 187.171875 203.695312 C 184.28125 205.113281 180.789062 203.917969 179.371094 201.027344 C 177.953125 198.136719 179.144531 194.644531 182.035156 193.226562 Z M 182.035156 193.226562 " clip-rule="nonzero"/></clipPath><clipPath id="6cd8282cd1"><path d="M 176 183 L 193 183 L 193 198 L 176 198 Z M 176 183 " clip-rule="nonzero"/></clipPath><clipPath id="007b1a0dec"><path d="M 174.136719 188.585938 L 189.195312 181.195312 L 194.335938 191.671875 L 179.277344 199.058594 Z M 174.136719 188.585938 " clip-rule="nonzero"/></clipPath><clipPath id="fe449dc797"><path d="M 179.375 186.015625 L 183.957031 183.769531 C 186.847656 182.347656 190.34375 183.542969 191.761719 186.433594 C 193.183594 189.328125 191.988281 192.824219 189.097656 194.242188 L 184.515625 196.488281 C 181.625 197.910156 178.128906 196.714844 176.707031 193.824219 C 175.289062 190.929688 176.484375 187.433594 179.375 186.015625 Z M 179.375 186.015625 " clip-rule="nonzero"/></clipPath><clipPath id="fc03d31452"><path d="M 0 0 L 17 0 L 17 15 L 0 15 Z M 0 0 " clip-rule="nonzero"/></clipPath><clipPath id="db09822dd2"><path d="M -1.863281 5.585938 L 13.195312 -1.804688 L 18.335938 8.671875 L 3.277344 16.058594 Z M -1.863281 5.585938 " clip-rule="nonzero"/></clipPath><clipPath id="dc9377f5dd"><path d="M 3.375 3.015625 L 7.957031 0.769531 C 10.847656 -0.652344 14.34375 0.542969 15.761719 3.433594 C 17.183594 6.328125 15.988281 9.824219 13.097656 11.242188 L 8.515625 13.488281 C 5.625 14.910156 2.128906 13.714844 0.707031 10.824219 C -0.710938 7.929688 0.484375 4.433594 3.375 3.015625 Z M 3.375 3.015625 " clip-rule="nonzero"/></clipPath><clipPath id="f092f4ff9b"><rect x="0" width="17" y="0" height="15"/></clipPath><clipPath id="ba15d30f9d"><path d="M 176 183 L 193 183 L 193 198 L 176 198 Z M 176 183 " clip-rule="nonzero"/></clipPath><clipPath id="701cb03f6a"><path d="M 174.136719 188.585938 L 188.953125 181.316406 L 194.238281 192.089844 L 179.425781 199.359375 Z M 174.136719 188.585938 " clip-rule="nonzero"/></clipPath><clipPath id="2e2a41a4ee"><path d="M 174.136719 188.585938 L 189.644531 180.976562 L 195.140625 192.175781 L 179.632812 199.78125 Z M 174.136719 188.585938 " clip-rule="nonzero"/></clipPath><clipPath id="380caa9918"><path d="M 179.371094 186.015625 L 183.949219 183.769531 C 186.839844 182.351562 190.332031 183.546875 191.75 186.4375 C 193.167969 189.328125 191.976562 192.820312 189.085938 194.238281 L 184.507812 196.484375 C 181.617188 197.902344 178.125 196.710938 176.707031 193.820312 C 175.289062 190.929688 176.480469 187.433594 179.371094 186.015625 Z M 179.371094 186.015625 " clip-rule="nonzero"/></clipPath></defs><path stroke-linecap="butt" transform="matrix(0, 0.75, -0.75, 0, 114.672969, 110.100278)" fill="none" stroke-linejoin="miter" d="M 0.00171217 16.50146 L 218.49131 16.50146 " stroke="#000000" stroke-width="33" stroke-opacity="1" stroke-miterlimit="4"/><path stroke-linecap="butt" transform="matrix(0.75, 0, 0, 0.75, 102.299866, 97.723383)" fill="none" stroke-linejoin="miter" d="M 0.00122062 16.499032 L 136.558521 16.499032 " stroke="#000000" stroke-width="33" stroke-opacity="1" stroke-miterlimit="4"/><path stroke-linecap="butt" transform="matrix(0.75, 0, 0, 0.75, 102.299866, 179.658255)" fill="none" stroke-linejoin="miter" d="M 0.00122062 16.502537 L 109.246019 16.502537 " stroke="#000000" stroke-width="33" stroke-opacity="1" stroke-miterlimit="4"/><path stroke-linecap="butt" transform="matrix(0.75, 0, 0, 0.75, 171.85974, 110.098382)" fill="none" stroke-linejoin="miter" d="M 125.744313 -0.00096816 L 125.744313 160.368834 C 125.744313 190.535503 101.291186 214.988629 71.124517 214.988629 L 47.275558 214.988629 C 39.114099 214.988629 31.285973 211.749046 25.515139 205.978212 C 19.744306 200.207378 16.499514 192.379253 16.499514 184.217794 L 16.499514 153.44175 " stroke="#000000" stroke-width="33" stroke-opacity="1" stroke-miterlimit="4"/><path stroke-linecap="butt" transform="matrix(0.53033, 0.53033, -0.53033, 0.53033, 111.048828, 101.351521)" fill="none" stroke-linejoin="miter" d="M -0.00180138 16.50104 L 154.497357 16.497357 " stroke="#000000" stroke-width="33" stroke-opacity="1" stroke-miterlimit="4"/><path stroke-linecap="butt" transform="matrix(0.53033, -0.53033, 0.53033, 0.53033, 175.482811, 183.27923)" fill="none" stroke-linejoin="miter" d="M -0.000429932 16.502538 L 154.498728 16.498855 " stroke="#000000" stroke-width="33" stroke-opacity="1" stroke-miterlimit="4"/><g clip-path="url(#0edd704404)"><g transform="matrix(1, 0, 0, 1, 257, 101)"><g clip-path="url(#5b1aa21fdd)"><g clip-path="url(#75a29c98fe)"><path fill="#000000" d="M 0.429688 0.414062 L 21.449219 0.414062 L 21.449219 10.109375 L 0.429688 10.109375 Z M 0.429688 0.414062 " fill-opacity="1" fill-rule="nonzero"/></g></g></g></g><g clip-path="url(#2e494de8a2)"><path stroke-linecap="butt" transform="matrix(0.75, 0, 0, 0.75, 257.429373, 101.414137)" fill="none" stroke-linejoin="miter" d="M 0.000419073 -0.0000987206 L 28.016046 -0.0000987206 L 28.016046 12.921777 L 0.000419073 12.921777 Z M 0.000419073 -0.0000987206 " stroke="#000000" stroke-width="120" stroke-opacity="1" stroke-miterlimit="4"/></g><g clip-path="url(#f3304b9500)"><g transform="matrix(1, 0, 0, 1, 90, 97)"><g clip-path="url(#7dab329017)"><g clip-path="url(#fc20352e6b)"><path fill="#000000" d="M 0.0078125 0.808594 L 12.789062 0.808594 L 12.789062 14.089844 L 0.0078125 14.089844 Z M 0.0078125 0.808594 " fill-opacity="1" fill-rule="nonzero"/></g></g></g></g><g clip-path="url(#3305e40075)"><path stroke-linecap="butt" transform="matrix(0.75, 0, 0, 0.75, 90.011079, 97.808146)" fill="none" stroke-linejoin="miter" d="M 0.000852481 0.000596497 L 17.026895 0.000596497 L 17.026895 17.719348 L 0.000852481 17.719348 Z M 0.000852481 0.000596497 " stroke="#000000" stroke-width="120" stroke-opacity="1" stroke-miterlimit="4"/></g><g clip-path="url(#e82b56549f)"><g clip-path="url(#6cb7c64047)"><g clip-path="url(#5f53f0db42)"><g transform="matrix(1, 0, 0, 1, 178, 190)"><g clip-path="url(#4a20bae542)"><g clip-path="url(#24f45878dc)"><g clip-path="url(#d3cca4f393)"><g clip-path="url(#fe4d30a873)"><path fill="#000000" d="M -1.199219 5.796875 L 13.859375 -1.59375 L 19 8.882812 L 3.941406 16.269531 Z M -1.199219 5.796875 " fill-opacity="1" fill-rule="nonzero"/></g></g></g></g></g></g></g></g><g clip-path="url(#e1d1e91de2)"><g clip-path="url(#706b57c744)"><g clip-path="url(#f23b4d9e4f)"><g clip-path="url(#a9e7121986)"><path stroke-linecap="butt" transform="matrix(0.6733, -0.330405, 0.330405, 0.6733, 176.802062, 195.795338)" fill="none" stroke-linejoin="miter" d="M 7.77276 -0.000913822 L 14.571998 -0.00030564 C 18.864908 0.000333694 22.342866 3.482362 22.342227 7.775271 C 22.341587 12.06818 18.864235 15.548433 14.571326 15.547793 L 7.772087 15.547185 C 3.479178 15.546546 0.00121999 12.064518 0.00185932 7.771609 C 0.00249866 3.4787 3.479851 -0.00155316 7.77276 -0.000913822 Z M 7.77276 -0.000913822 " stroke="#000000" stroke-width="120" stroke-opacity="1" stroke-miterlimit="4"/></g></g></g></g><g clip-path="url(#6cd8282cd1)"><g clip-path="url(#007b1a0dec)"><g clip-path="url(#fe449dc797)"><g transform="matrix(1, 0, 0, 1, 176, 183)"><g clip-path="url(#f092f4ff9b)"><g clip-path="url(#fc03d31452)"><g clip-path="url(#db09822dd2)"><g clip-path="url(#dc9377f5dd)"><path fill="#000000" d="M -1.863281 5.585938 L 13.195312 -1.804688 L 18.335938 8.671875 L 3.277344 16.058594 Z M -1.863281 5.585938 " fill-opacity="1" fill-rule="nonzero"/></g></g></g></g></g></g></g></g><g clip-path="url(#ba15d30f9d)"><g clip-path="url(#701cb03f6a)"><g clip-path="url(#2e2a41a4ee)"><g clip-path="url(#380caa9918)"><path stroke-linecap="butt" transform="matrix(0.6733, -0.330405, 0.330405, 0.6733, 174.138655, 188.585085)" fill="none" stroke-linejoin="miter" d="M 7.772378 -0.00211898 L 14.571616 -0.00151079 C 18.864526 -0.000871461 22.342484 3.481156 22.341844 7.774066 C 22.341205 12.066975 18.863853 15.547228 14.570944 15.546588 L 7.771705 15.54598 C 3.478796 15.545341 -0.00145662 12.067989 -0.000817285 7.775079 C -0.000177951 3.48217 3.479469 -0.00275831 7.772378 -0.00211898 Z M 7.772378 -0.00211898 " stroke="#000000" stroke-width="120" stroke-opacity="1" stroke-miterlimit="4"/></g></g></g></g></svg>