<svg xmlns="http://www.w3.org/2000/svg" xmlns:xlink="http://www.w3.org/1999/xlink" width="500" zoomAndPan="magnify" viewBox="0 0 375 374.999991" height="500" preserveAspectRatio="xMidYMid meet" version="1.0"><defs><clipPath id="aed74c741c"><path d="M 321.5 21.601562 L 359.988281 21.601562 L 359.988281 39.347656 L 321.5 39.347656 Z M 321.5 21.601562 " clip-rule="nonzero"/></clipPath><clipPath id="4931f729d0"><path d="M 0.5 0.601562 L 38.988281 0.601562 L 38.988281 18.347656 L 0.5 18.347656 Z M 0.5 0.601562 " clip-rule="nonzero"/></clipPath><clipPath id="7aac095d52"><rect x="0" width="39" y="0" height="19"/></clipPath><clipPath id="7755fd0745"><path d="M 321.503906 21.601562 L 359.75 21.601562 L 359.75 39.34375 L 321.503906 39.34375 Z M 321.503906 21.601562 " clip-rule="nonzero"/></clipPath><clipPath id="cd5e143e66"><path d="M 15 15 L 38.398438 15 L 38.398438 39.347656 L 15 39.347656 Z M 15 15 " clip-rule="nonzero"/></clipPath><clipPath id="649bb4d7b1"><path d="M 0 0 L 23.398438 0 L 23.398438 24.347656 L 0 24.347656 Z M 0 0 " clip-rule="nonzero"/></clipPath><clipPath id="e87d59393b"><rect x="0" width="24" y="0" height="25"/></clipPath><clipPath id="9384ddc634"><path d="M 15 15 L 38.25 15 L 38.25 39 L 15 39 Z M 15 15 " clip-rule="nonzero"/></clipPath><clipPath id="e8cd5163ca"><path d="M 177 184 L 208 184 L 208 210 L 177 210 Z M 177 184 " clip-rule="nonzero"/></clipPath><clipPath id="f916f83569"><path d="M 173.890625 194.390625 L 201.457031 180.863281 L 210.867188 200.039062 L 183.300781 213.566406 Z M 173.890625 194.390625 " clip-rule="nonzero"/></clipPath><clipPath id="60784a6bf5"><path d="M 183.480469 189.683594 L 191.863281 185.570312 C 197.160156 182.972656 203.558594 185.160156 206.15625 190.453125 C 208.757812 195.75 206.570312 202.148438 201.273438 204.746094 L 192.890625 208.863281 C 187.59375 211.460938 181.195312 209.273438 178.597656 203.980469 C 176 198.683594 178.183594 192.285156 183.480469 189.683594 Z M 183.480469 189.683594 " clip-rule="nonzero"/></clipPath><clipPath id="52462b5df7"><path d="M 0 0 L 31 0 L 31 26 L 0 26 Z M 0 0 " clip-rule="nonzero"/></clipPath><clipPath id="d9fb16eea2"><path d="M -3.109375 10.390625 L 24.457031 -3.136719 L 33.867188 16.039062 L 6.300781 29.566406 Z M -3.109375 10.390625 " clip-rule="nonzero"/></clipPath><clipPath id="c2b7b1bc7f"><path d="M 6.480469 5.683594 L 14.863281 1.570312 C 20.160156 -1.027344 26.558594 1.160156 29.15625 6.453125 C 31.757812 11.75 29.570312 18.148438 24.273438 20.746094 L 15.890625 24.863281 C 10.59375 27.460938 4.195312 25.273438 1.597656 19.980469 C -1 14.683594 1.183594 8.285156 6.480469 5.683594 Z M 6.480469 5.683594 " clip-rule="nonzero"/></clipPath><clipPath id="3abb7c7872"><rect x="0" width="31" y="0" height="26"/></clipPath><clipPath id="00d2117a30"><path d="M 177 184 L 208 184 L 208 210 L 177 210 Z M 177 184 " clip-rule="nonzero"/></clipPath><clipPath id="87998f6617"><path d="M 173.890625 194.390625 L 201.496094 180.84375 L 210.75 199.695312 L 183.144531 213.242188 Z M 173.890625 194.390625 " clip-rule="nonzero"/></clipPath><clipPath id="2dee84a77e"><path d="M 173.894531 194.390625 L 202.285156 180.457031 L 212.347656 200.960938 L 183.957031 214.894531 Z M 173.894531 194.390625 " clip-rule="nonzero"/></clipPath><clipPath id="08933a12c2"><path d="M 183.480469 189.6875 L 191.859375 185.574219 C 197.152344 182.976562 203.546875 185.160156 206.144531 190.453125 C 208.742188 195.746094 206.558594 202.144531 201.265625 204.742188 L 192.886719 208.855469 C 187.59375 211.453125 181.195312 209.265625 178.597656 203.972656 C 176 198.679688 178.1875 192.285156 183.480469 189.6875 Z M 183.480469 189.6875 " clip-rule="nonzero"/></clipPath><clipPath id="55115dabdc"><path d="M 172 171 L 203 171 L 203 197 L 172 197 Z M 172 171 " clip-rule="nonzero"/></clipPath><clipPath id="0ef2fa670b"><path d="M 169.015625 181.191406 L 196.582031 167.664062 L 205.992188 186.839844 L 178.425781 200.367188 Z M 169.015625 181.191406 " clip-rule="nonzero"/></clipPath><clipPath id="fc926bb232"><path d="M 178.605469 176.484375 L 186.988281 172.371094 C 192.285156 169.773438 198.683594 171.957031 201.28125 177.253906 C 203.878906 182.550781 201.695312 188.949219 196.398438 191.546875 L 188.015625 195.660156 C 182.71875 198.261719 176.320312 196.074219 173.722656 190.777344 C 171.121094 185.484375 173.308594 179.082031 178.605469 176.484375 Z M 178.605469 176.484375 " clip-rule="nonzero"/></clipPath><clipPath id="b4edef3756"><path d="M 0 0 L 31 0 L 31 26 L 0 26 Z M 0 0 " clip-rule="nonzero"/></clipPath><clipPath id="244b6b25bf"><path d="M -2.984375 10.191406 L 24.582031 -3.335938 L 33.992188 15.839844 L 6.425781 29.367188 Z M -2.984375 10.191406 " clip-rule="nonzero"/></clipPath><clipPath id="6f2c40b70a"><path d="M 6.605469 5.484375 L 14.988281 1.371094 C 20.285156 -1.226562 26.683594 0.957031 29.28125 6.253906 C 31.878906 11.550781 29.695312 17.949219 24.398438 20.546875 L 16.015625 24.660156 C 10.71875 27.261719 4.320312 25.074219 1.722656 19.777344 C -0.878906 14.484375 1.308594 8.082031 6.605469 5.484375 Z M 6.605469 5.484375 " clip-rule="nonzero"/></clipPath><clipPath id="8e06571b17"><rect x="0" width="31" y="0" height="26"/></clipPath><clipPath id="705ef9b297"><path d="M 172 171 L 203 171 L 203 197 L 172 197 Z M 172 171 " clip-rule="nonzero"/></clipPath><clipPath id="8dab13b611"><path d="M 169.015625 181.191406 L 196.621094 167.644531 L 205.871094 186.496094 L 178.269531 200.042969 Z M 169.015625 181.191406 " clip-rule="nonzero"/></clipPath><clipPath id="12051d8a3b"><path d="M 169.019531 181.1875 L 197.410156 167.257812 L 207.472656 187.761719 L 179.082031 201.695312 Z M 169.019531 181.1875 " clip-rule="nonzero"/></clipPath><clipPath id="a2e216dfe7"><path d="M 178.601562 176.484375 L 186.984375 172.375 C 192.277344 169.777344 198.671875 171.960938 201.269531 177.253906 C 203.867188 182.546875 201.683594 188.945312 196.390625 191.542969 L 188.007812 195.652344 C 182.714844 198.25 176.320312 196.066406 173.722656 190.773438 C 171.125 185.480469 173.308594 179.082031 178.601562 176.484375 Z M 178.601562 176.484375 " clip-rule="nonzero"/></clipPath></defs><rect x="-37.5" width="450" fill="#ffffff" y="-37.499999" height="449.999989" fill-opacity="1"/><rect x="-37.5" width="450" fill="#ffffff" y="-37.499999" height="449.999989" fill-opacity="1"/><path stroke-linecap="butt" transform="matrix(0, 0.75, -0.75, 0, 59.996602, 37.503396)" fill="none" stroke-linejoin="miter" d="M 0.000680417 30.00068 L 399.995498 30.00068 " stroke="#000000" stroke-width="60" stroke-opacity="1" stroke-miterlimit="4"/><path stroke-linecap="butt" transform="matrix(0.75, 0, 0, 0.75, 37.500002, 14.999999)" fill="none" stroke-linejoin="miter" d="M -0.00000271667 30.000003 L 250.000014 30.000003 " stroke="#000000" stroke-width="60" stroke-opacity="1" stroke-miterlimit="4"/><path stroke-linecap="butt" transform="matrix(0.75, 0, 0, 0.75, 37.500002, 164.999989)" fill="none" stroke-linejoin="miter" d="M -0.00000271667 30.000016 L 200.00001 30.000016 " stroke="#000000" stroke-width="60" stroke-opacity="1" stroke-miterlimit="4"/><path stroke-linecap="butt" transform="matrix(0.75, 0, 0, 0.75, 164.999994, 37.499998)" fill="none" stroke-linejoin="miter" d="M 230.000024 0.00000328333 L 230.000024 293.588564 C 230.000024 320.109399 219.463565 345.546901 200.708355 364.296902 C 181.958354 383.052112 156.520852 393.588571 130.000017 393.588571 L 86.338556 393.588571 C 71.395846 393.588571 57.067721 387.65107 46.500012 377.08857 C 35.937511 366.520861 30.00001 352.192735 30.00001 337.250025 L 30.00001 280.91148 " stroke="#000000" stroke-width="60" stroke-opacity="1" stroke-miterlimit="4"/><path stroke-linecap="butt" transform="matrix(0.53033, 0.53033, -0.53033, 0.53033, 53.408303, 21.593964)" fill="none" stroke-linejoin="miter" d="M 0.00154632 29.998531 L 282.844276 29.998531 " stroke="#000000" stroke-width="60" stroke-opacity="1" stroke-miterlimit="4"/><path stroke-linecap="butt" transform="matrix(0.53033, -0.53033, 0.53033, 0.53033, 171.58848, 171.58622)" fill="none" stroke-linejoin="miter" d="M 0.00155163 30.001499 L 282.844282 30.001499 " stroke="#000000" stroke-width="60" stroke-opacity="1" stroke-miterlimit="4"/><g clip-path="url(#aed74c741c)"><g transform="matrix(1, 0, 0, 1, 321, 21)"><g clip-path="url(#7aac095d52)"><g clip-path="url(#4931f729d0)"><path fill="#000000" d="M 0.5 0.601562 L 38.976562 0.601562 L 38.976562 18.347656 L 0.5 18.347656 Z M 0.5 0.601562 " fill-opacity="1" fill-rule="nonzero"/></g></g></g></g><g clip-path="url(#7755fd0745)"><path stroke-linecap="butt" transform="matrix(0.75, 0, 0, 0.75, 321.504622, 21.599999)" fill="none" stroke-linejoin="miter" d="M -0.000954051 0.00208522 L 51.295924 0.00208522 L 51.295924 23.658337 L -0.000954051 23.658337 Z M -0.000954051 0.00208522 " stroke="#000000" stroke-width="120" stroke-opacity="1" stroke-miterlimit="4"/></g><g clip-path="url(#cd5e143e66)"><g transform="matrix(1, 0, 0, 1, 15, 15)"><g clip-path="url(#e87d59393b)"><g clip-path="url(#649bb4d7b1)"><path fill="#000000" d="M 0 0 L 23.398438 0 L 23.398438 24.3125 L 0 24.3125 Z M 0 0 " fill-opacity="1" fill-rule="nonzero"/></g></g></g></g><g clip-path="url(#9384ddc634)"><path stroke-linecap="butt" transform="matrix(0.75, 0, 0, 0.75, 15.000237, 14.999999)" fill="none" stroke-linejoin="miter" d="M -0.000316047 0.00000131333 L 31.187186 0.00000131333 L 31.187186 32.453128 L -0.000316047 32.453128 Z M -0.000316047 0.00000131333 " stroke="#000000" stroke-width="120" stroke-opacity="1" stroke-miterlimit="4"/></g><g clip-path="url(#e8cd5163ca)"><g clip-path="url(#f916f83569)"><g clip-path="url(#60784a6bf5)"><g transform="matrix(1, 0, 0, 1, 177, 184)"><g clip-path="url(#3abb7c7872)"><g clip-path="url(#52462b5df7)"><g clip-path="url(#d9fb16eea2)"><g clip-path="url(#c2b7b1bc7f)"><path fill="#000000" d="M -3.109375 10.390625 L 24.457031 -3.136719 L 33.867188 16.039062 L 6.304688 29.566406 Z M -3.109375 10.390625 " fill-opacity="1" fill-rule="nonzero"/></g></g></g></g></g></g></g></g><g clip-path="url(#00d2117a30)"><g clip-path="url(#87998f6617)"><g clip-path="url(#2dee84a77e)"><g clip-path="url(#08933a12c2)"><path stroke-linecap="butt" transform="matrix(0.6733, -0.330405, 0.330405, 0.6733, 173.894715, 194.389192)" fill="none" stroke-linejoin="miter" d="M 14.235642 0.00272922 L 26.68109 0.000885997 C 34.542483 0.000571759 40.913977 6.370348 40.914291 14.231741 C 40.914605 22.093134 34.542534 28.469303 26.681141 28.469617 L 14.235693 28.471461 C 6.374301 28.471775 0.000425717 22.095028 0.000111479 14.233635 C -0.000202759 6.372243 6.37425 0.00304345 14.235642 0.00272922 Z M 14.235642 0.00272922 " stroke="#000000" stroke-width="120" stroke-opacity="1" stroke-miterlimit="4"/></g></g></g></g><g clip-path="url(#55115dabdc)"><g clip-path="url(#0ef2fa670b)"><g clip-path="url(#fc926bb232)"><g transform="matrix(1, 0, 0, 1, 172, 171)"><g clip-path="url(#8e06571b17)"><g clip-path="url(#b4edef3756)"><g clip-path="url(#244b6b25bf)"><g clip-path="url(#6f2c40b70a)"><path fill="#000000" d="M -2.984375 10.191406 L 24.582031 -3.335938 L 33.992188 15.839844 L 6.425781 29.367188 Z M -2.984375 10.191406 " fill-opacity="1" fill-rule="nonzero"/></g></g></g></g></g></g></g></g><g clip-path="url(#705ef9b297)"><g clip-path="url(#8dab13b611)"><g clip-path="url(#12051d8a3b)"><g clip-path="url(#a2e216dfe7)"><path stroke-linecap="butt" transform="matrix(0.6733, -0.330405, 0.330405, 0.6733, 169.018777, 181.189179)" fill="none" stroke-linejoin="miter" d="M 14.233917 -0.0027386 L 26.681746 0.00238835 C 34.543139 0.00207411 40.914633 6.371851 40.914947 14.233243 C 40.915261 22.094636 34.54319 28.470806 26.681797 28.47112 L 14.233968 28.465993 C 6.372575 28.466307 0.00108173 22.09653 0.000767494 14.235138 C 0.000453256 6.373745 6.372524 -0.00242437 14.233917 -0.0027386 Z M 14.233917 -0.0027386 " stroke="#000000" stroke-width="120" stroke-opacity="1" stroke-miterlimit="4"/></g></g></g></g></svg>